<mxfile host="app.diagrams.net" modified="2022-06-21T08:26:12.947Z" agent="5.0 (Windows NT 10.0; Win64; x64) AppleWebKit/537.36 (KHTML, like Gecko) Chrome/102.0.0.0 Safari/537.36" etag="17Lo1i0jAYwe8F3wXUvy" version="18.1.2" type="github">
  <diagram id="JA-0cK-SLS5K7fkHWSqH" name="Page-1">
    <mxGraphModel dx="1422" dy="761" grid="0" gridSize="10" guides="1" tooltips="1" connect="1" arrows="1" fold="1" page="1" pageScale="1" pageWidth="1169" pageHeight="827" math="0" shadow="0">
      <root>
        <mxCell id="0" />
        <mxCell id="1" parent="0" />
        <mxCell id="HMpng0yt844E34L1iJV2-3" style="edgeStyle=orthogonalEdgeStyle;rounded=0;orthogonalLoop=1;jettySize=auto;html=1;exitX=1;exitY=0.5;exitDx=0;exitDy=0;" edge="1" parent="1" source="HMpng0yt844E34L1iJV2-1" target="HMpng0yt844E34L1iJV2-2">
          <mxGeometry relative="1" as="geometry" />
        </mxCell>
        <mxCell id="HMpng0yt844E34L1iJV2-1" value="解析mp4的头数据" style="rounded=1;whiteSpace=wrap;html=1;fillColor=default;" vertex="1" parent="1">
          <mxGeometry x="115" y="155" width="120" height="60" as="geometry" />
        </mxCell>
        <mxCell id="HMpng0yt844E34L1iJV2-7" style="edgeStyle=orthogonalEdgeStyle;rounded=0;orthogonalLoop=1;jettySize=auto;html=1;exitX=1;exitY=0.5;exitDx=0;exitDy=0;entryX=0;entryY=0.5;entryDx=0;entryDy=0;" edge="1" parent="1" source="HMpng0yt844E34L1iJV2-2" target="HMpng0yt844E34L1iJV2-4">
          <mxGeometry relative="1" as="geometry" />
        </mxCell>
        <mxCell id="HMpng0yt844E34L1iJV2-8" style="edgeStyle=orthogonalEdgeStyle;rounded=0;orthogonalLoop=1;jettySize=auto;html=1;exitX=1;exitY=0.5;exitDx=0;exitDy=0;entryX=0;entryY=0.5;entryDx=0;entryDy=0;" edge="1" parent="1" source="HMpng0yt844E34L1iJV2-2" target="HMpng0yt844E34L1iJV2-5">
          <mxGeometry relative="1" as="geometry" />
        </mxCell>
        <mxCell id="HMpng0yt844E34L1iJV2-2" value="不断读取512字节数据" style="rounded=1;whiteSpace=wrap;html=1;fillColor=default;" vertex="1" parent="1">
          <mxGeometry x="292" y="155" width="120" height="60" as="geometry" />
        </mxCell>
        <mxCell id="HMpng0yt844E34L1iJV2-10" style="edgeStyle=orthogonalEdgeStyle;rounded=0;orthogonalLoop=1;jettySize=auto;html=1;exitX=1;exitY=0.5;exitDx=0;exitDy=0;" edge="1" parent="1" source="HMpng0yt844E34L1iJV2-4" target="HMpng0yt844E34L1iJV2-9">
          <mxGeometry relative="1" as="geometry" />
        </mxCell>
        <mxCell id="HMpng0yt844E34L1iJV2-4" value="通过遍历&lt;br&gt;yyeffectmp4json[[&lt;br&gt;为开头" style="rounded=1;whiteSpace=wrap;html=1;fillColor=default;" vertex="1" parent="1">
          <mxGeometry x="509" y="72" width="120" height="60" as="geometry" />
        </mxCell>
        <mxCell id="HMpng0yt844E34L1iJV2-11" style="edgeStyle=orthogonalEdgeStyle;rounded=0;orthogonalLoop=1;jettySize=auto;html=1;exitX=1;exitY=0.5;exitDx=0;exitDy=0;entryX=0.5;entryY=1;entryDx=0;entryDy=0;" edge="1" parent="1" source="HMpng0yt844E34L1iJV2-5" target="HMpng0yt844E34L1iJV2-9">
          <mxGeometry relative="1" as="geometry" />
        </mxCell>
        <mxCell id="HMpng0yt844E34L1iJV2-5" value="通过遍历&lt;br&gt;]]yyeffectmp4json为结尾" style="rounded=1;whiteSpace=wrap;html=1;fillColor=default;" vertex="1" parent="1">
          <mxGeometry x="509" y="231" width="120" height="60" as="geometry" />
        </mxCell>
        <mxCell id="HMpng0yt844E34L1iJV2-13" style="edgeStyle=orthogonalEdgeStyle;rounded=0;orthogonalLoop=1;jettySize=auto;html=1;exitX=1;exitY=0.5;exitDx=0;exitDy=0;" edge="1" parent="1" source="HMpng0yt844E34L1iJV2-9" target="HMpng0yt844E34L1iJV2-12">
          <mxGeometry relative="1" as="geometry" />
        </mxCell>
        <mxCell id="HMpng0yt844E34L1iJV2-9" value="得到fectmp4json数据体，通过base64解密和zlib解密" style="rounded=1;whiteSpace=wrap;html=1;fillColor=default;" vertex="1" parent="1">
          <mxGeometry x="716" y="160" width="120" height="60" as="geometry" />
        </mxCell>
        <mxCell id="HMpng0yt844E34L1iJV2-17" style="edgeStyle=orthogonalEdgeStyle;rounded=0;orthogonalLoop=1;jettySize=auto;html=1;exitX=0.5;exitY=1;exitDx=0;exitDy=0;fontSize=18;" edge="1" parent="1" source="HMpng0yt844E34L1iJV2-12" target="HMpng0yt844E34L1iJV2-14">
          <mxGeometry relative="1" as="geometry" />
        </mxCell>
        <mxCell id="HMpng0yt844E34L1iJV2-18" style="edgeStyle=orthogonalEdgeStyle;rounded=0;orthogonalLoop=1;jettySize=auto;html=1;exitX=0.5;exitY=1;exitDx=0;exitDy=0;fontSize=18;" edge="1" parent="1" source="HMpng0yt844E34L1iJV2-12" target="HMpng0yt844E34L1iJV2-15">
          <mxGeometry relative="1" as="geometry" />
        </mxCell>
        <mxCell id="HMpng0yt844E34L1iJV2-19" style="edgeStyle=orthogonalEdgeStyle;rounded=0;orthogonalLoop=1;jettySize=auto;html=1;exitX=0.5;exitY=1;exitDx=0;exitDy=0;fontSize=18;" edge="1" parent="1" source="HMpng0yt844E34L1iJV2-12" target="HMpng0yt844E34L1iJV2-16">
          <mxGeometry relative="1" as="geometry" />
        </mxCell>
        <mxCell id="HMpng0yt844E34L1iJV2-12" value="通过json遍历解析得到数据类" style="rounded=1;whiteSpace=wrap;html=1;fillColor=default;" vertex="1" parent="1">
          <mxGeometry x="911" y="160" width="120" height="60" as="geometry" />
        </mxCell>
        <mxCell id="HMpng0yt844E34L1iJV2-14" value="&lt;font style=&quot;font-size: 18px;&quot;&gt;Descript&lt;/font&gt;&lt;br&gt;视频宽高&lt;br&gt;rgb区域数据&lt;br&gt;alpha区域数据" style="rounded=1;whiteSpace=wrap;html=1;fillColor=default;" vertex="1" parent="1">
          <mxGeometry x="188" y="409" width="120" height="83" as="geometry" />
        </mxCell>
        <mxCell id="HMpng0yt844E34L1iJV2-15" value="&lt;font style=&quot;font-size: 18px;&quot;&gt;Effect&lt;/font&gt;&lt;br&gt;元素宽高&lt;br&gt;元素id&lt;br&gt;元素类型&lt;br&gt;字体颜色大小" style="rounded=1;whiteSpace=wrap;html=1;fillColor=default;" vertex="1" parent="1">
          <mxGeometry x="433" y="409" width="120" height="83" as="geometry" />
        </mxCell>
        <mxCell id="HMpng0yt844E34L1iJV2-16" value="&lt;font style=&quot;font-size: 18px;&quot;&gt;Data&lt;/font&gt;&lt;br&gt;每一帧记录&lt;br&gt;元素画布中的位置&lt;br&gt;视频中区域中位置&lt;br&gt;对应的元素" style="rounded=1;whiteSpace=wrap;html=1;fillColor=default;" vertex="1" parent="1">
          <mxGeometry x="716" y="407" width="120" height="83" as="geometry" />
        </mxCell>
      </root>
    </mxGraphModel>
  </diagram>
</mxfile>
